<?xml version="1.0" encoding="utf-8"?>
<!-- Generator: Adobe Illustrator 16.0.0, SVG Export Plug-In . SVG Version: 6.00 Build 0)  -->
<!DOCTYPE svg PUBLIC "-//W3C//DTD SVG 1.1//EN" "http://www.w3.org/Graphics/SVG/1.1/DTD/svg11.dtd">
<svg version="1.1" id="Layer_1" xmlns="http://www.w3.org/2000/svg" xmlns:xlink="http://www.w3.org/1999/xlink" x="0px" y="0px"
	 width="281px" height="55px" viewBox="0 0 281 55" enable-background="new 0 0 281 55" xml:space="preserve">
<rect x="51.857" y="-0.013" width="0.683" height="55"/>
<g>
	<path d="M65.333,12.664c-0.679,0.346-0.839,0.626-0.839,1.478l-0.014,3.531v0.093c0,1.85,0.174,2.411,0.853,2.917
		c0.412,0.306,1.025,0.466,1.757,0.466c1.239,0,2.038-0.52,2.239-1.478c0.079-0.373,0.119-0.827,0.119-1.36v-0.186l-0.012-3.116
		v-0.093c0-1.292-0.228-1.799-1.053-2.238h2.904c-0.893,0.519-1.106,0.985-1.146,2.49l-0.081,3.703
		c-0.053,2.037-1.079,2.904-3.437,2.904c-2.677,0-4.115-0.958-4.115-2.744v-0.172l-0.067-4.702c-0.013-0.92-0.12-1.173-0.639-1.492
		H65.333z"/>
	<path d="M74.486,19.656c0-0.358,0.013-0.611,0.027-0.759c0-0.065,0-0.065,0-0.093l0.013-5.021
		c-0.266-0.493-0.652-0.813-1.278-1.066l2.903-0.013l5.728,6.607l0.027-4.037v-0.093c0-1.585-0.239-2.104-1.093-2.438h2.731
		c-0.306,0.107-0.64,0.532-0.787,0.999c-0.106,0.345-0.212,1.146-0.239,1.812l-0.094,1.944c0,0.026,0,0.026,0,0.066
		c0,0.054,0,0.134,0,0.239c-0.013,0.095-0.013,0.16-0.013,0.213c0,0.094,0,0.094,0,0.107l-0.08,3.557l-1.052,0.012l-0.041-0.053
		c-0.173-0.213-1.105-1.345-2.796-3.396c-1.546-1.865-2.598-3.104-3.157-3.69l-0.174-0.185v3.849v0.358l0.041,0.854
		c0.08,1.531,0.16,1.745,0.825,2.104l0.094,0.041h-2.61C74.233,21.202,74.459,20.774,74.486,19.656z"/>
	<path d="M86.624,19.99v-0.107v-5.673v-0.053c0-0.853-0.175-1.2-0.72-1.427h3.356c-0.518,0.334-0.666,0.734-0.666,1.732v0.081
		l-0.012,5.433v0.081c0,0.839,0.16,1.238,0.585,1.519H85.93C86.502,21.24,86.624,20.961,86.624,19.99z"/>
	<path d="M95.322,21.602l-0.626-1.506l-0.587-1.438l-0.039-0.106l-1.932-4.448c-0.332-0.772-0.599-1.172-0.986-1.425l3.637-0.013
		c-0.521,0.319-0.68,0.505-0.68,0.825c0,0.134,0.067,0.374,0.16,0.613l0.041,0.08l0.666,1.692c0,0.04,0.013,0.04,0.027,0.067
		c0.066,0.118,0.16,0.345,0.293,0.677c0.066,0.174,0.16,0.414,0.279,0.707c0.014,0.066,0.027,0.066,0.041,0.093l1.132,2.583
		l1.891-4.341c0.334-0.787,0.64-1.759,0.64-2.065c0-0.333-0.24-0.666-0.679-0.919h2.61c-0.494,0.319-0.959,0.919-1.332,1.665
		l-0.586,1.172l-0.066,0.16l-1.625,3.556l-0.053,0.094l-0.452,1.131l-0.453,1.12L96.6,21.693h-1.239L95.322,21.602z"/>
	<path d="M103.022,19.51l0.026-0.573v-0.361v-4.088v-0.081l-0.026-0.438c-0.039-0.639-0.332-1.091-0.812-1.252h0.16l3.077,0.054
		l3.17-0.067l0.107-0.014l0.16,1.879l-0.068,0.012c-0.479-0.999-1.331-1.451-2.757-1.451h-1.064l-0.054,3.584h0.906h0.027
		c1.238,0,1.904-0.347,2.078-1.092h0.092v2.636h-0.081c-0.186-0.758-0.851-1.172-1.917-1.172l-0.133,0.015h-0.972v2.65v0.118
		l0.039,0.682c0.026,0.478,0.254,0.638,0.92,0.638c1.331,0,2.09-0.238,2.81-0.866c0.28-0.24,0.373-0.358,0.572-0.678l0.094,0.012
		l-0.561,1.919h-6.606C102.916,21.308,102.956,21.202,103.022,19.51z"/>
	<path d="M112.201,20.096l0.014-1.744v-0.16v-0.599v-0.547c0-0.067,0-0.107,0-0.119l-0.041-2.812
		c-0.012-0.746-0.239-1.212-0.679-1.386h0.827c0,0,0.039,0,0.08,0c0.106,0.014,0.385,0,0.812-0.025c0.053,0,0.373,0,0.945-0.014
		l1.239-0.04c1.932,0,2.811,0.319,3.317,1.171c0.199,0.334,0.306,0.72,0.306,1.119c0,1.213-0.826,2.078-2.158,2.279l1.718,1.957
		l0.066,0.08c0.04,0.054,0.308,0.346,0.8,0.867c0.4,0.426,0.666,0.704,0.812,0.825c0.093,0.079,0.346,0.265,0.733,0.546l0.066,0.039
		c-0.227,0.041-0.28,0.054-0.68,0.067l-0.546,0.013c-0.053,0-0.093,0-0.146,0c-1.052,0-1.786-0.386-2.491-1.331
		c-0.026-0.067-0.053-0.067-0.066-0.081l-2.331-2.677h-0.625l0.039,2.544v0.093c0.014,0.707,0.147,0.986,0.613,1.345l0.093,0.067
		h-3.49C111.949,21.375,112.201,20.896,112.201,20.096z M114.853,17.153h0.026c1.398,0,2.198-0.747,2.198-2.039
		c0-1.185-0.773-1.998-1.905-1.998c-0.041,0-0.093,0-0.134,0.014c-0.053,0-0.093,0-0.106,0l-0.772,0.026l0.015,3.957L114.853,17.153
		z"/>
	<path d="M121.9,18.871h0.133c0.533,1.573,1.732,2.53,3.196,2.53c1.092,0,1.919-0.691,1.919-1.623c0-0.853-0.547-1.333-2.279-1.986
		c-1.679-0.625-2.29-1.039-2.65-1.757c-0.133-0.28-0.199-0.601-0.199-0.946c0-1.544,1.332-2.677,3.144-2.677
		c0.679,0,1.278,0.134,2.157,0.467c0.254,0.092,0.333,0.105,0.426,0.105c0.2,0,0.32-0.08,0.546-0.359l0.106,2.25h-0.146
		c-0.386-1.091-1.652-1.996-2.823-1.996c-0.919,0-1.532,0.586-1.532,1.438c0,0.891,0.427,1.265,2.078,1.824
		c1.546,0.52,2.305,1.013,2.744,1.744c0.201,0.361,0.307,0.773,0.307,1.199c0,1.639-1.505,2.785-3.61,2.785
		c-1.251,0-2.916-0.547-3.476-1.146L121.9,18.871z"/>
	<path d="M132.066,19.99v-0.107v-5.673v-0.053c0-0.853-0.174-1.2-0.721-1.427h3.358c-0.521,0.334-0.668,0.734-0.668,1.732v0.081
		l-0.012,5.433v0.081c0,0.839,0.16,1.238,0.587,1.519h-3.238C131.945,21.24,132.066,20.961,132.066,19.99z"/>
	<path d="M139.818,19.856V19.67l0.014-6.46h-0.146c-0.785,0-1.346,0.16-1.959,0.586c-0.451,0.307-0.586,0.44-0.839,0.853
		l-0.146-0.041l0.626-2.063c0.493,0.172,0.654,0.185,2.357,0.185h1.492c2.039,0,3.559-0.052,4.051-0.119l0.148,0.186l-0.773,1.785
		l-0.176-0.053c0.029-0.066,0.029-0.092,0.029-0.158c0-0.853-0.467-1.213-1.547-1.213h-0.039l-1.039,0.026l0.041,6.595
		c0,1.157,0.184,1.53,0.877,1.797h-3.836C139.605,21.362,139.818,20.949,139.818,19.856z"/>
	<path d="M149.732,21.495c0.627-0.36,0.703-0.519,0.703-1.426v-2.186l-2.596-3.928c-0.48-0.72-0.814-1.105-1.162-1.292l3.895-0.013
		l-0.137,0.066l-0.213,0.093c-0.09,0.041-0.172,0.121-0.252,0.227c-0.082,0.107-0.117,0.227-0.117,0.333
		c0,0.132,0.145,0.439,0.369,0.812l1.904,2.971l1.162-1.851l0.055-0.08c0.344-0.573,0.609-1.239,0.609-1.612
		c0-0.36-0.213-0.626-0.705-0.893h2.98c-0.383,0.267-0.703,0.587-1.168,1.159c-0.242,0.307-0.627,0.838-1.172,1.611
		c-0.029,0.068-0.041,0.068-0.053,0.094l-1.414,2.172v1.863v0.107c0,1.132,0.188,1.612,0.707,1.852h-3.531
		C149.654,21.548,149.693,21.522,149.732,21.495z"/>
	<path d="M161.787,17.153c0-2.73,2.227-4.715,5.275-4.715c3.064,0,5.234,1.932,5.234,4.647c0,2.783-2.252,4.73-5.418,4.73
		C163.959,21.815,161.787,19.83,161.787,17.153z M170.168,17.125c0-2.397-1.295-4.182-3.025-4.182c-1.744,0-3.01,1.838-3.01,4.37
		c0,2.384,1.172,4.022,2.889,4.022C168.805,21.335,170.168,19.51,170.168,17.125z"/>
	<path d="M175.336,20.109c0.014-0.465,0.043-1.052,0.057-1.745v-0.146l-0.014-2.797v-0.107v-0.2c0-1.598-0.229-2.278-0.828-2.397
		l6.184-0.053l0.102,1.958h-0.102c-0.24-0.999-1.014-1.586-2.146-1.586l-0.145,0.013l-1.131,0.014l0.01,3.676h1.09
		c1.043,0,1.348-0.187,1.824-1.052c0-0.054,0.018-0.041,0.043-0.08h0.105l-0.023,2.716l-0.125,0.013
		c-0.209-0.825-0.811-1.238-1.809-1.238h-0.041l-1.064,0.013v2.596v0.095c0,1.104,0.215,1.651,0.719,1.771h-3.369
		C175.139,21.375,175.312,20.977,175.336,20.109z"/>
</g>
<g>
	<path fill="#731012" d="M212.033,46.726c-3.734,0-6.369-3.683-6.369-8.956c0-5.267,2.576-8.892,6.348-8.892
		c3.762,0,6.566,3.796,6.566,8.922C218.578,43.013,215.863,46.726,212.033,46.726z M211.729,47.606
		c6.201,0,10.707-4.197,10.707-9.978c0-5.635-4.281-9.713-10.168-9.743c-6.209,0-10.881,4.277-10.881,9.944
		C201.387,43.439,205.836,47.606,211.729,47.606z"/>
	<path fill="#731012" d="M222.449,47.218h0.342c1.498-0.081,3.979-0.14,6.814-0.14c2.01,0,3.824,0.059,5.293,0.14h0.115l1.076-4.928
		l-0.199-0.027l-0.084,0.143c-1.389,2.914-2.775,3.851-5.723,3.851c-2.123,0-2.52-0.226-2.52-1.497l-0.021-13.148
		c0-1.556,0.652-2.661,1.875-3.229h-7.166c1.441,0.597,1.865,1.39,1.895,3.514l0.057,6.346c0,0-0.027,6.651-0.027,6.767
		C224.176,45.915,223.555,46.709,222.449,47.218z"/>
	<path fill="#731012" d="M235.986,47.218h6.338c-1.219-0.593-1.641-1.355-1.641-2.83l0.029-12.717c0-1.93,0.254-2.496,1.555-3.29
		h-6.225c1.16,0.825,1.389,1.219,1.389,2.693v0.564l-0.059,12.778C237.348,45.916,237.064,46.512,235.986,47.218z"/>
	<path fill="#731012" d="M86.209,27.852c-6.203,0.017-10.866,4.31-10.85,9.979c0.002,0.51,0.041,1.008,0.114,1.492
		c-0.841-1.497-2.664-2.604-6.002-3.812l-1.174-0.435c-2.339-0.842-3.309-1.863-3.313-3.47c-0.004-1.784,1.481-3.192,3.354-3.199
		c1.813-0.004,3.833,1.011,4.95,2.442c0.499,0.644,0.647,0.933,1,1.868l0.439-0.061l-0.307-4.532L74.1,28.095
		c-0.231,0.382-0.438,0.5-0.906,0.502c-0.263,0-0.439-0.03-0.907-0.264c-1.347-0.577-2.871-0.924-4.331-0.919
		c-3.774,0.012-6.429,2.154-6.419,5.167c0.008,2.808,1.677,4.472,6.394,6.3c0.88,0.347,1.377,0.522,1.553,0.609
		c2.079,0.841,3.253,2.212,3.258,3.877c0.008,2.139-1.801,3.725-4.201,3.73c-2.983,0.012-5.593-2.062-6.832-5.389l-0.411,0.089
		l0.132,4.003c0.322,0.266,0.439,0.354,0.996,0.645c2.314,1.223,3.718,1.596,6.03,1.59c1.345-0.006,2.573-0.215,3.625-0.569
		c2.307-0.852,3.998-3.226,3.991-5.595c0-0.139-0.006-0.271-0.015-0.405c1.473,3.676,5.149,6.119,9.671,6.107
		c6.207-0.019,10.699-4.226,10.682-10.002C96.391,31.93,92.104,27.864,86.209,27.852z M86.039,46.694
		c-3.739,0.01-6.386-3.667-6.402-8.937c-0.015-5.271,2.555-8.902,6.322-8.912c3.767-0.015,6.583,3.773,6.599,8.903
		C92.573,42.961,89.863,46.682,86.039,46.694z"/>
	<path fill="#731012" d="M145.168,37.526l0.037-4.614l0.104-2.239c0.033-0.935,0.537-1.636,1.555-2.292h-6.658
		c0.984,0.674,1.305,1.423,1.312,3.208v0.059l-0.066,5.94h-8.828l-0.035-4.271v-0.14c-0.011-3.089,0.272-3.803,1.88-4.738
		l0.117-0.059l-7.144-0.037l-12.32,0.013l-5.414,0.023c1.192,0.535,1.736,1.663,1.745,4.043l-0.202,8.697
		c-0.024,1.102-0.106,1.726-0.304,2.408c-0.501,1.73-2.287,2.78-4.751,2.79c-1.954,0.004-3.743-0.726-4.453-1.801
		c-0.626-0.932-0.885-2.035-0.862-4.021l-0.023-8.326l0.042-1.235c0.081-1.417,0.502-2.042,1.78-2.555H95.71
		c1.049,0.307,1.452,0.969,1.486,2.528l0.034,11.076c0.005,1.955,0.548,3.203,1.826,4.074c1.503,1.072,3.546,1.549,6.294,1.536
		c4.987-0.012,7.442-2.174,7.46-6.649l0.191-6.811c-0.009-3.194,1.158-4.81,4.852-4.789l1.3-0.035l0.098,14.049
		c-0.021,2.352-0.386,3.348-1.49,3.857h7.083c-1.416-0.502-1.873-1.374-1.881-3.7L122.861,29.3l2.505-0.021
		c3.459,0.003,3.594,1.612,3.605,4.96l-0.009,5.183v0.142l-0.049,1.985v0.226l-0.105,2.239c-0.054,1.499-0.445,2.436-1.269,3.063
		l-0.224,0.142h6.721c-1.049-0.62-1.401-1.264-1.405-2.707l-0.007-5.762h8.802l-0.072,4.714c0.01,2.04-0.457,3.042-1.676,3.755
		h7.154c-1.168-0.562-1.697-1.498-1.705-3.085l0.035-5.448L145.168,37.526z"/>
	<path fill="#731012" d="M273.543,47.218H281c-0.953-0.3-1.598-1.034-2.443-2.797c0,0-2.535-5.63-2.725-6.062
		c-0.4-0.862-0.375-0.824-4.271-10.422c-0.406,0.192-1.953,0.387-2.059,0.387c0,0-0.639,1.516-1.018,2.354
		c-0.596,1.359-3.15,6.911-3.15,6.911l-2.781,6.223c-0.418,0.865-0.834,1.561-1.33,2.161l-0.064-2.517l0.027-3.996l0.082-2.408
		l0.201-4.989c0.086-1.981,0.424-2.771,1.615-3.683h-4.535c1.076,0.51,1.561,1.872,1.561,4.478l0.031,1.955l-0.201,7.395
		L248.49,28.379l-5.494,0.002c1.049,0.597,1.729,1.104,2.354,1.758l-0.031,13.171c0,2.265-0.424,3.085-1.982,3.907h5.691
		c-1.75-0.536-2.35-1.445-2.35-3.625l-0.021-11.982l12.904,15.607h0.33h1.361h4.23c-0.977-0.382-1.574-1.142-1.574-1.984
		c0-0.674,0.289-2.493,0.695-3.416l1.426-3.068h6.328l2.381,5.971c0,0,0.025,0,0.055,0.135c0.135,0.354,0.271,0.787,0.271,0.947
		C275.064,46.399,274.521,46.891,273.543,47.218z M266.57,37.589l2.676-6.257l2.57,6.257H266.57z"/>
	<path fill="#731012" d="M203.604,46.663c-0.74-0.596-1.303-1.241-2.207-2.203c-0.508-0.566-1.693-1.842-2.293-2.521
		c-0.053-0.059-0.086-0.059-0.115-0.142l-3.115-3.796c2.861-0.709,4.393-2.41,4.393-4.844c0-1.676-0.877-3.202-2.324-4.023
		c-1.018-0.567-2.609-0.877-4.561-0.877c-0.17,0-0.625,0-0.625,0l-4.023,0.111l-0.846,0.029l-3.033-0.029
		c1.246,0.649,1.641,1.361,1.641,2.976L186.469,44.1l0.025,0.287c0,0.722-0.156,1.297-0.49,1.771
		c-0.326-0.424-0.65-0.987-1.008-1.736c0,0-2.535-5.63-2.725-6.062c-0.4-0.862-0.375-0.824-4.271-10.422
		c-0.406,0.192-1.951,0.387-2.061,0.387c0,0-0.635,1.516-1.012,2.354c-0.596,1.359-1.9,4.287-1.9,4.287l-1.256,2.624l-2.348,5.262
		c-0.35,0.678-0.572,0.993-1.193,1.7c-1.564,1.715-3.223,2.527-5.184,2.527c-4.457,0-7.408-3.915-7.408-9.819
		c0-5.547,2.738-9.31,6.715-9.31c2.531,0,4.699,1.568,7.021,5.027l0.062,0.122l0.393-0.033l-0.455-4.635
		c-0.301,0.119-0.484,0.181-0.631,0.147c-0.092,0-0.152,0-0.242-0.059c-1.746-0.902-4.186-1.506-6.238-1.506
		c-6.357,0-10.873,4.397-10.873,10.544c0,6.088,4.457,10.457,10.662,10.457c1.564,0,3.057-0.244,4.592-0.796h5.275
		c-0.973-0.382-1.572-1.142-1.572-1.984c0-0.674,0.291-2.493,0.697-3.416l1.422-3.068h6.33c0,0,2.408,5.971,2.436,6.105
		c0.135,0.354,0.271,0.787,0.271,0.947c0,0.598-0.543,1.089-1.521,1.416h4.646h2.809h4.953c-1.754-0.51-2.295-1.247-2.295-3.313
		l-0.055-5.283l0.85-0.056c0.82,0,1.012,0.087,1.557,0.739l0.934,1.103c0,0,3.369,4.167,3.428,4.309
		c0.932,1.046,1.5,1.672,1.754,1.874c0.939,0.845,2.576,1.889,5.473,1.987c1.535,0.057,2.082-0.136,3.131-0.537
		C205.631,47.795,204.559,47.431,203.604,46.663z M173.008,37.589l2.68-6.257l2.568,6.257H173.008z M192.02,37.77
		c-0.141,0-1.955-0.08-1.955-0.08l-0.023-8.416l1.754-0.057c1.137,0.028,2.07,0.199,2.775,0.481
		c1.277,0.512,2.154,2.097,2.154,3.879C196.725,36.302,195.053,37.77,192.02,37.77z"/>
</g>
<g>
	<path d="M21.331,52.631c-1.815,0-2.906-0.189-4.631-0.805c-1.645-0.589-2.554-1.086-3.914-2.182l0.614-0.95
		c1.257,0.995,2.028,1.478,3.532,2.024c1.608,0.594,2.643,0.769,4.367,0.781c1.718-0.013,2.769-0.183,4.385-0.781
		c1.503-0.55,2.279-1.029,3.533-2.024l0.614,0.95c-1.363,1.096-2.271,1.591-3.913,2.182C24.208,52.434,23.145,52.631,21.331,52.631z
		"/>
	<g>
		<path d="M15.994,49.141l0.998,0.466c-0.137-0.109-0.143-0.241-0.035-0.476l0.786-1.672c-0.17-0.008-0.371-0.052-0.796-0.172
			l-0.06-0.021c0.019,0.015,0.03,0.028,0.039,0.036c0.125,0.095,0.141,0.186,0.063,0.367c0,0-0.525,1.136-0.534,1.16
			c-0.148,0.287-0.188,0.315-0.398,0.311C16.041,49.146,16.02,49.146,15.994,49.141z"/>
	</g>
	<g>
		<path d="M19.809,48.738l-0.028-0.019c-0.39-0.265-0.516-0.496-0.438-0.785c0.078-0.284,0.297-0.423,0.555-0.356
			c0.28,0.082,0.416,0.358,0.336,0.67C20.165,48.493,20.005,48.678,19.809,48.738z M19.34,48.99c0.573,0.36,0.75,0.656,0.64,1.074
			c-0.098,0.362-0.39,0.562-0.716,0.471c-0.374-0.1-0.534-0.454-0.411-0.921C18.942,49.293,19.113,49.071,19.34,48.99z
			 M19.225,48.908l-0.064,0.006c-0.135,0.018-0.248,0.038-0.345,0.053c-0.303,0.07-0.523,0.274-0.597,0.547
			c-0.134,0.499,0.24,0.964,0.918,1.146c0.694,0.183,1.293-0.074,1.439-0.625c0.036-0.13,0.044-0.26,0.017-0.387
			c-0.052-0.286-0.182-0.445-0.614-0.772c-0.015-0.008-0.042-0.028-0.075-0.059c0.459,0.008,0.773-0.166,0.856-0.479
			c0.098-0.372-0.209-0.73-0.763-0.879c-0.601-0.16-1.101,0.056-1.229,0.53c-0.062,0.232-0.008,0.471,0.141,0.645
			C19.006,48.746,19.042,48.779,19.225,48.908z"/>
	</g>
	<g>
		<path d="M23.216,50.292c-0.419,0.071-0.817-0.346-0.931-0.991c-0.107-0.603,0.087-1.059,0.473-1.124
			c0.419-0.076,0.836,0.368,0.951,1.022C23.814,49.786,23.616,50.219,23.216,50.292z M23.22,50.445
			c0.837-0.145,1.326-0.74,1.2-1.466c-0.127-0.722-0.812-1.112-1.667-0.965c-0.207,0.034-0.412,0.106-0.595,0.21
			c-0.478,0.269-0.667,0.68-0.568,1.241C21.72,50.213,22.37,50.597,23.22,50.445z"/>
	</g>
	<g>
		<path d="M25.8,49.557l0.99-0.482c-0.171,0.035-0.278-0.044-0.395-0.275l-0.804-1.663c-0.113,0.127-0.271,0.256-0.631,0.512
			l-0.054,0.035c0.023-0.005,0.038-0.012,0.051-0.008c0.154-0.038,0.237,0.008,0.328,0.179c0,0,0.551,1.124,0.563,1.15
			c0.131,0.294,0.129,0.344-0.006,0.502C25.832,49.52,25.822,49.537,25.8,49.557z"/>
	</g>
	<polygon points="26.708,29.081 33.968,29.081 33.14,30.412 27.488,30.412 	"/>
	<polygon points="27.671,31.05 33.158,31.05 33.158,35.766 41.866,35.766 41.866,36.355 33.158,36.355 33.158,42.413 32.034,42.413 
		32.034,32.195 28.833,32.195 28.833,42.413 27.671,42.413 	"/>
	<path d="M34.483,32.767c0.591-0.303,0.966,0,0.966,0v9.646h-0.966V32.767z"/>
	<path d="M36.872,33.892c0.594-0.304,0.967,0,0.967,0v8.521h-0.967V33.892z"/>
	<path d="M39.261,34.582c0.595-0.304,0.968,0,0.968,0v7.831h-0.968V34.582z"/>
	<path d="M41.653,35.098c0.593-0.306,0.965,0,0.965,0v7.315h-0.965V35.098z"/>
	<path d="M24.114,42.413h1.554l-1.892-2.488h2.15v-1.05h-2.345l0.032-7.581l2.15-2.213h-1.638l1.642-2.379h-1.571l1.312-1.63
		c0.599,0.467,0.909,0.779,1.391,1.368c0.633,0.782,0.919,1.298,1.306,2.228v-2.892c-0.447-0.413-0.728-0.624-1.254-0.928
		c-0.84-0.494-1.387-0.688-2.346-0.867l-2.309,2.726h1.735l-1.571,2.374h1.475l-1.732,1.829l-0.015,8.781L24.114,42.413z"/>
	<polygon points="15.91,29.081 8.652,29.081 9.477,30.412 15.13,30.412 	"/>
	<polygon points="14.944,31.05 9.462,31.05 9.462,35.766 0.75,35.766 0.75,36.355 9.462,36.355 9.462,42.413 10.585,42.413 
		10.585,32.195 13.785,32.195 13.785,42.413 14.944,42.413 	"/>
	<path d="M8.133,32.767c-0.592-0.303-0.965,0-0.965,0v9.646h0.965V32.767z"/>
	<path d="M5.745,33.892c-0.593-0.304-0.965,0-0.965,0v8.521h0.965V33.892z"/>
	<path d="M3.354,34.582c-0.593-0.304-0.965,0-0.965,0v7.831h0.965V34.582z"/>
	<path d="M0.964,35.098c-0.593-0.306-0.964,0-0.964,0v7.315h0.964V35.098z"/>
	<path d="M18.504,42.413H16.95l1.892-2.488h-2.148v-1.05h2.342l-0.032-7.581l-1.637-2.213h1.637l-2.155-2.379h1.573l-1.31-1.63
		c-0.601,0.467-0.913,0.779-1.391,1.368c-0.636,0.782-0.922,1.298-1.309,2.228v-2.892c0.449-0.411,0.729-0.622,1.257-0.928
		c0.839-0.494,1.384-0.685,2.344-0.867l2.309,2.726h-1.736l2.086,2.374h-1.477l1.221,1.829l0.015,8.781L18.504,42.413z"/>
	<g>
		<path d="M23.146,22.077c1.125-0.382,1.841-0.448,3.023-0.34c1.481,0.137,2.353,0.484,3.564,1.35
			c0.758,0.54,1.146,0.929,1.686,1.685v3.41c-0.405-1.519-0.885-2.384-1.972-3.521c-1.056-1.104-1.871-1.59-3.311-2.101
			C25.023,22.168,24.327,22.068,23.146,22.077z"/>
		<path d="M19.784,22.077c-1.123-0.384-1.842-0.45-3.023-0.34c-1.479,0.141-2.354,0.483-3.562,1.35
			c-0.757,0.542-1.146,0.929-1.687,1.685v3.41c0.406-1.519,0.883-2.384,1.972-3.521c1.058-1.102,1.869-1.59,3.308-2.101
			C17.909,22.17,18.602,22.068,19.784,22.077z"/>
		<path d="M21.363,8.346c0.316-2.21,0.784-3.372,1.812-4.629c0.569-0.696,1.013-0.833,1.783-1.322l0.019-2.406
			c-1.156,0.726-1.765,1.363-2.508,2.632c-0.68,1.164-0.958,2.871-1.106,4.051c-0.149-1.18-0.423-2.887-1.104-4.051
			c-0.745-1.269-1.353-1.906-2.51-2.632l0.02,2.406c0.771,0.489,1.214,0.626,1.782,1.322C20.583,4.974,21.05,6.136,21.363,8.346z"/>
		<path d="M21.363,12.207c0.447-1.186,0.757-1.787,1.436-2.814c0.984-1.489,1.675-2.289,3.094-3.371
			c1.216-0.924,2.02-1.384,3.436-1.869V1.476c-1.352,0.49-1.779,1.01-2.818,1.848c-0.424,0.337-1.284,1.154-2.072,2.136
			c-0.826,1.031-1.572,2.234-1.834,2.776c-0.376,0.781-1.06,2.172-1.24,3.279c-0.181-1.106-0.864-2.498-1.238-3.279
			c-0.259-0.542-1.009-1.745-1.834-2.776c-0.79-0.982-1.65-1.799-2.07-2.136c-1.04-0.837-1.469-1.357-2.823-1.848v2.677
			c1.417,0.485,2.221,0.946,3.437,1.869c1.418,1.078,2.111,1.88,3.095,3.371C20.609,10.42,20.917,11.021,21.363,12.207z"/>
		<path d="M21.363,14.352c0.418-1.102,0.963-2.353,1.954-3.61c1.006-1.273,1.783-1.827,3.114-2.754
			c2.398-1.669,4.058-2.423,6.909-2.893v2.758c-1.291,0.059-2.342,0.161-3.776,0.561c-1.663,0.464-2.534,0.914-4.05,1.787
			c-1.224,0.709-2.951,2.682-4.15,4.753c-1.198-2.071-2.926-4.044-4.148-4.753c-1.516-0.873-2.388-1.323-4.051-1.787
			c-1.435-0.4-2.485-0.502-3.776-0.561V5.095c2.854,0.47,4.511,1.223,6.909,2.893c1.33,0.927,2.108,1.481,3.115,2.754
			C20.404,11.999,20.946,13.25,21.363,14.352z"/>
		<path d="M21.36,17.097c-1.661-1.902-3.603-3.416-4.977-4.069c-1.854-0.884-3.269-1.183-5.433-1.125
			c-1.445,0.035-3.644,0.672-3.644,0.672L7.299,9.477c2.132-0.001,3.38,0.198,5.417,0.845c2.126,0.672,3.341,1.205,5.113,2.554
			c1.611,1.225,2.354,2.289,3.535,3.804c1.183-1.515,1.925-2.579,3.536-3.808c1.772-1.355,2.985-1.883,5.112-2.557
			c2.038-0.646,3.286-0.847,5.418-0.845l-0.01,3.098c0,0-2.2-0.636-3.644-0.673c-2.164-0.057-3.58,0.245-5.432,1.127
			C24.971,13.674,23.021,15.195,21.36,17.097z"/>
		<path d="M21.37,18.625c1.386-1.416,2.243-2.092,3.939-3.026c2.195-1.211,4.335-1.865,6.135-1.914
			c2.141-0.058,3.591,0.222,5.617,1.036v2.974c-1.647-1.416-2.756-2.005-4.818-2.401c-2.61-0.497-4.291-0.015-6.741,1.015
			c-1.769,0.741-2.66,1.369-4.125,2.688c-1.459-1.318-2.373-1.94-4.151-2.688c-2.451-1.027-4.132-1.519-6.741-1.015
			c-2.061,0.397-3.171,0.985-4.822,2.401l0.002-2.974c2.028-0.813,3.476-1.093,5.619-1.036c1.797,0.048,3.937,0.708,6.135,1.914
			C19.123,16.531,19.982,17.209,21.37,18.625z"/>
		<path d="M21.377,21.849c1.076-0.927,2.064-1.59,3.067-1.908c1.98-0.622,4.07-0.107,5.251,0.242
			c1.566,0.463,3.911,1.698,5.528,3.738v3.186c-0.784-1.26-1.328-1.923-2.392-2.954c-1.5-1.45-2.436-2.384-4.428-3
			c-1.854-0.573-3.165-0.797-4.978-0.104c-0.873,0.333-2.048,1.247-2.048,1.247c-0.474-0.458-1.182-0.913-2.06-1.247
			c-1.813-0.688-3.122-0.469-4.978,0.104c-1.992,0.616-2.929,1.55-4.428,3c-1.063,1.031-1.611,1.694-2.39,2.954v-3.186
			c1.616-2.04,3.961-3.275,5.526-3.738c1.179-0.35,3.271-0.864,5.25-0.242C19.299,20.259,20.303,20.922,21.377,21.849z"/>
		<path d="M21.363,20.326c1.3-1.339,2.146-1.955,3.824-2.63c2.869-1.153,5.002-0.998,7.928,0c2.122,0.722,3.293,1.472,4.849,3.09
			v3.836c-0.863-1.515-1.52-2.307-2.822-3.463c-1.49-1.329-2.526-2.071-4.388-2.633c-1.684-0.509-4.179-0.574-5.997,0
			c-1.019,0.323-2.231,1.04-3.394,2.171c-1.16-1.131-2.375-1.848-3.395-2.171c-1.816-0.574-4.311-0.509-5.995,0
			c-1.859,0.562-2.896,1.307-4.387,2.633c-1.302,1.157-1.958,1.949-2.82,3.463v-3.836c1.554-1.616,2.725-2.365,4.846-3.09
			c2.925-1.004,5.06-1.155,7.926,0C19.217,18.371,20.063,18.987,21.363,20.326z"/>
	</g>
	<path d="M21.31,54.91c1.782,0.038,2.945-0.117,4.774-0.657c1.573-0.465,2.51-0.813,3.866-1.758c0.483,0.51,0.59,0.684,1.129,1.048
		c0.754,0.502,0.97,0.643,1.792,0.961v-1.225c-0.631-0.293-0.968-0.517-1.51-0.949c-0.59-0.473-0.89-0.793-1.342-1.401
		c-1.51,1.188-2.527,1.718-4.36,2.293c-1.631,0.509-2.63,0.657-4.339,0.626h0.005h-0.026h0.006c-1.71,0.031-2.709-0.117-4.342-0.626
		c-1.831-0.575-2.85-1.104-4.361-2.293c-0.45,0.608-0.75,0.929-1.339,1.401c-0.546,0.433-0.881,0.656-1.512,0.949v1.225
		c0.819-0.318,1.039-0.459,1.792-0.961c0.542-0.364,0.649-0.538,1.132-1.048c1.352,0.944,2.292,1.293,3.865,1.758
		C18.368,54.793,19.528,54.948,21.31,54.91z"/>
	<path d="M21.322,45.778c1.487,0,2.497-0.229,3.819-0.89c1.124-0.557,1.664-1.049,2.454-2.027l5.65,0.754l2.49,4.276
		c0.628-0.479,0.938-0.797,1.288-1.504c0.255-0.528,0.229-0.993,0.271-1.489c0.017-0.177,0.208-0.246,0.311-0.082
		c0.1,0.163,3.546,5.729,3.546,5.729c-0.731,0.832-1.261,1.171-2.277,1.615c-1.383,0.602-2.535,0.751-4.017,0.47
		c-1.847-0.346-2.849-1.027-3.924-2.598l-3.242-5.588c-0.825,0.843-1.403,1.26-2.485,1.737c-0.847,0.373-2.31,0.754-3.883,0.72
		c-1.577-0.033-3.04-0.347-3.888-0.72c-1.083-0.478-1.657-0.895-2.483-1.737l-3.242,5.588c-1.074,1.57-2.076,2.252-3.925,2.598
		c-1.483,0.281-2.631,0.132-4.017-0.47c-1.014-0.444-1.547-0.783-2.276-1.615c0,0,3.445-5.566,3.546-5.729
		c0.101-0.164,0.295-0.095,0.308,0.082c0.044,0.496,0.016,0.961,0.275,1.489c0.347,0.707,0.655,1.025,1.284,1.504l2.49-4.276
		l5.652-0.754c0.787,0.979,1.329,1.471,2.453,2.027c1.32,0.66,2.335,0.89,3.818,0.89H21.322z M13.276,44.255l-3.165,0.425
		l-2.194,3.772C8.538,48.745,9,48.756,9.685,48.651c0.85-0.123,1.613-0.266,2.05-1.008c0,0,1.767-2.993,1.775-3.008
		C13.755,44.154,13.276,44.255,13.276,44.255z M10.653,49.509c-1.696,0.499-2.806,0.229-3.922-0.37
		c-0.916-0.492-1.375-0.956-1.873-1.872l-1.817,2.945c0.746,0.787,1.669,1.174,2.732,1.295C7.787,51.742,9.14,51.353,10.653,49.509z
		 M29.129,44.636c0.006,0.015,1.776,3.008,1.776,3.008c0.437,0.742,1.201,0.885,2.051,1.008c0.684,0.104,1.15,0.094,1.766-0.199
		L32.53,44.68l-3.165-0.425C29.365,44.255,28.888,44.154,29.129,44.636z M36.864,51.507c1.064-0.121,1.987-0.508,2.736-1.295
		l-1.822-2.945c-0.495,0.916-0.953,1.38-1.869,1.872c-1.118,0.599-2.225,0.869-3.919,0.37C33.5,51.353,34.853,51.742,36.864,51.507z
		"/>
	<g>
		<path d="M41.82,44.767c0.709,0,1.276,0.569,1.279,1.293c0,0.732-0.561,1.3-1.276,1.3c-0.709,0.007-1.284-0.558-1.287-1.295
			c-0.003-0.72,0.572-1.296,1.277-1.298H41.82z M41.816,44.973c-0.569,0-1.036,0.487-1.033,1.092
			c0.003,0.612,0.472,1.099,1.046,1.096c0.574,0.005,1.033-0.485,1.03-1.096c-0.003-0.612-0.461-1.098-1.04-1.092H41.816z
			 M41.579,46.815h-0.23l-0.006-1.442c0.122-0.018,0.236-0.039,0.412-0.039c0.217,0,0.363,0.049,0.45,0.109
			c0.083,0.065,0.134,0.165,0.134,0.299c0,0.188-0.128,0.309-0.283,0.354v0.012c0.125,0.022,0.214,0.135,0.243,0.35
			c0.034,0.224,0.069,0.313,0.093,0.356h-0.245c-0.031-0.043-0.068-0.175-0.098-0.364c-0.032-0.187-0.126-0.256-0.31-0.256
			l-0.164,0.002L41.579,46.815z M41.576,46.018h0.169c0.188-0.003,0.349-0.072,0.349-0.252c0-0.124-0.092-0.252-0.351-0.252
			c-0.074,0-0.128,0.009-0.167,0.015V46.018z"/>
	</g>
</g>
</svg>
